<svg width="20" height="20" viewBox="0 0 20 20" fill="none" xmlns="http://www.w3.org/2000/svg">
<g clip-path="url(#clip0_1_43)">
<path d="M14.6776 12.93C15.888 11.2784 16.4301 9.23062 16.1955 7.19644C15.9609 5.16226 14.9669 3.29168 13.4123 1.95892C11.8578 0.626155 9.8573 -0.070492 7.81116 0.00834944C5.76502 0.0871909 3.82409 0.935706 2.3767 2.38414C0.929302 3.83257 0.0821755 5.7741 0.00479822 7.8203C-0.072579 9.86649 0.625499 11.8665 1.95937 13.4201C3.29324 14.9737 5.16454 15.9663 7.19889 16.1995C9.23323 16.4326 11.2806 15.8891 12.9314 14.6775H12.9301C12.9676 14.7275 13.0076 14.775 13.0526 14.8213L17.8651 19.6338C18.0995 19.8683 18.4175 20.0001 18.749 20.0003C19.0806 20.0004 19.3987 19.8688 19.6332 19.6344C19.8678 19.4 19.9996 19.082 19.9997 18.7504C19.9999 18.4189 19.8682 18.1008 19.6339 17.8663L14.8214 13.0538C14.7767 13.0085 14.7286 12.968 14.6776 12.93ZM15.0001 8.125C15.0001 9.02784 14.8223 9.92184 14.4768 10.756C14.1313 11.5901 13.6249 12.348 12.9865 12.9864C12.3481 13.6248 11.5902 14.1312 10.7561 14.4767C9.92195 14.8222 9.02795 15 8.12511 15C7.22227 15 6.32828 14.8222 5.49416 14.4767C4.66005 14.1312 3.90216 13.6248 3.26375 12.9864C2.62535 12.348 2.11894 11.5901 1.77344 10.756C1.42794 9.92184 1.25011 9.02784 1.25011 8.125C1.25011 6.30164 1.97444 4.55296 3.26375 3.26364C4.55307 1.97433 6.30175 1.25 8.12511 1.25C9.94847 1.25 11.6972 1.97433 12.9865 3.26364C14.2758 4.55296 15.0001 6.30164 15.0001 8.125Z" fill="#1E1E1E"/>
</g>
<defs>
<clipPath id="clip0_1_43">
<rect width="20" height="20" fill="white"/>
</clipPath>
</defs>
</svg>
