<svg width="40" height="40" viewBox="0 0 40 40" fill="none" xmlns="http://www.w3.org/2000/svg">
<g clip-path="url(#clip0_1_102)">
<path d="M9.13477 3.31985C8.98719 3.13 8.8009 2.97373 8.58828 2.86141C8.37566 2.7491 8.14157 2.6833 7.90157 2.66841C7.66157 2.65351 7.42114 2.68985 7.19626 2.77501C6.97139 2.86018 6.7672 2.99221 6.59727 3.16235L4.01227 5.74985C2.80477 6.95985 2.35977 8.67235 2.88727 10.1749C5.07662 16.3938 8.63801 22.0401 13.3073 26.6949C17.9621 31.364 23.6083 34.9254 29.8273 37.1149C31.3298 37.6423 33.0423 37.1974 34.2523 35.9899L36.8373 33.4049C37.0074 33.2349 37.1395 33.0307 37.2246 32.8059C37.3098 32.581 37.3461 32.3406 37.3312 32.1006C37.3163 31.8606 37.2505 31.6265 37.1382 31.4138C37.0259 31.2012 36.8696 31.0149 36.6798 30.8674L30.9123 26.3824C30.7094 26.225 30.4735 26.1159 30.2224 26.063C29.9712 26.0102 29.7113 26.0151 29.4623 26.0774L23.9873 27.4449C23.2565 27.6275 22.4908 27.6178 21.7649 27.4167C21.0389 27.2156 20.3774 26.83 19.8448 26.2974L13.7048 20.1549C13.1717 19.6224 12.7856 18.9611 12.5841 18.2351C12.3825 17.5091 12.3724 16.7434 12.5548 16.0124L13.9248 10.5374C13.987 10.2883 13.9919 10.0284 13.9391 9.77726C13.8863 9.52608 13.7771 9.29018 13.6198 9.08735L9.13477 3.31985ZM4.70977 1.27735C5.14726 0.839726 5.67284 0.500178 6.25162 0.281256C6.8304 0.0623327 7.44913 -0.0309556 8.06673 0.00758508C8.68432 0.0461258 9.28666 0.215614 9.83373 0.504794C10.3808 0.793975 10.8601 1.19623 11.2398 1.68485L15.7248 7.44985C16.5473 8.50735 16.8373 9.88485 16.5123 11.1849L15.1448 16.6599C15.0741 16.9434 15.0779 17.2405 15.1559 17.5221C15.2338 17.8038 15.3833 18.0605 15.5898 18.2674L21.7323 24.4099C21.9394 24.6167 22.1965 24.7665 22.4787 24.8444C22.7608 24.9224 23.0583 24.926 23.3423 24.8549L28.8148 23.4874C29.4563 23.3269 30.1259 23.3145 30.773 23.4509C31.42 23.5873 32.0276 23.8691 32.5498 24.2749L38.3148 28.7599C40.3873 30.3724 40.5773 33.4349 38.7223 35.2873L36.1373 37.8724C34.2873 39.7224 31.5223 40.5349 28.9448 39.6273C22.3477 37.3062 16.358 33.5294 11.4198 28.5774C6.468 23.6399 2.69129 17.651 0.369774 11.0549C-0.535226 8.47985 0.277274 5.71235 2.12727 3.86235L4.71227 1.27735H4.70977ZM27.4998 1.24985C27.4998 0.918332 27.6315 0.600389 27.8659 0.365969C28.1003 0.131548 28.4183 -0.00014757 28.7498 -0.00014757H38.7498C39.0813 -0.00014757 39.3992 0.131548 39.6337 0.365969C39.8681 0.600389 39.9998 0.918332 39.9998 1.24985V11.2499C39.9998 11.5814 39.8681 11.8993 39.6337 12.1337C39.3992 12.3682 39.0813 12.4999 38.7498 12.4999C38.4183 12.4999 38.1003 12.3682 37.8659 12.1337C37.6315 11.8993 37.4998 11.5814 37.4998 11.2499V4.26735L27.1348 14.6349C26.9001 14.8696 26.5817 15.0014 26.2498 15.0014C25.9178 15.0014 25.5995 14.8696 25.3648 14.6349C25.1301 14.4001 24.9982 14.0818 24.9982 13.7499C24.9982 13.4179 25.1301 13.0996 25.3648 12.8649L35.7323 2.49985H28.7498C28.4183 2.49985 28.1003 2.36816 27.8659 2.13374C27.6315 1.89932 27.4998 1.58137 27.4998 1.24985Z" fill="#1E1E1E"/>
</g>
<defs>
<clipPath id="clip0_1_102">
<rect width="40" height="40" fill="white"/>
</clipPath>
</defs>
</svg>
