<svg width="24" height="24" viewBox="0 0 24 24" fill="none" xmlns="http://www.w3.org/2000/svg">
<path d="M10.7883 21.7412L10.7872 21.7401C7.68351 18.6726 5.16439 16.1781 3.41252 13.8421C1.67033 11.519 0.75 9.43262 0.75 7.19346C0.75 3.50509 3.37685 0.75 6.6 0.75C8.43621 0.75 10.2308 1.68603 11.4108 3.18444L12 3.93271L12.5892 3.18444C13.7692 1.68603 15.5638 0.75 17.4 0.75C20.6232 0.75 23.25 3.50509 23.25 7.19346C23.25 9.43262 22.3297 11.519 20.5875 13.8421C18.8356 16.1781 16.3165 18.6726 13.2128 21.7401L13.2118 21.7412L12 22.9435L10.7883 21.7412Z" stroke="black" stroke-width="1.5"/>
</svg>
