<svg width="22" height="19" viewBox="0 0 22 19" fill="none" xmlns="http://www.w3.org/2000/svg">
<path fill-rule="evenodd" clip-rule="evenodd" d="M15.2346 4.68423C15.6423 4.2847 16.3033 4.2847 16.711 4.68423L20.8868 8.77656C21.2944 9.17607 21.2944 9.82389 20.8868 10.2234L16.711 14.3157C16.3033 14.7152 15.6423 14.7152 15.2346 14.3157C14.8269 13.9162 14.8269 13.2684 15.2346 12.8689L17.6283 10.5231H7.62111C7.04453 10.5231 6.57715 10.065 6.57715 9.49998C6.57715 8.93493 7.04453 8.4769 7.62111 8.4769H17.6283L15.2346 6.13108C14.8269 5.73157 14.8269 5.08378 15.2346 4.68423Z" fill="black"/>
<path fill-rule="evenodd" clip-rule="evenodd" d="M0 1.05556C0 0.472593 0.475898 0 1.06294 0H10.6294C11.2164 0 11.6923 0.472593 11.6923 1.05556V5.27778C11.6923 5.86076 11.2164 6.33333 10.6294 6.33333C10.0423 6.33333 9.56643 5.86076 9.56643 5.27778V2.11111H2.12587V16.8889H9.56643V13.7222C9.56643 13.1392 10.0423 12.6667 10.6294 12.6667C11.2164 12.6667 11.6923 13.1392 11.6923 13.7222V17.9444C11.6923 18.5274 11.2164 19 10.6294 19H1.06294C0.475898 19 0 18.5274 0 17.9444V1.05556Z" fill="black"/>
</svg>
