<svg width="9" height="9" viewBox="0 0 9 9" fill="none" xmlns="http://www.w3.org/2000/svg">
<rect x="0.2" y="0.2" width="8.6" height="8.6" rx="4.3" fill="#837D82"/>
<rect x="0.2" y="0.2" width="8.6" height="8.6" rx="4.3" stroke="#837D82" stroke-width="0.4"/>
<path d="M4.798 3.256C4.674 3.256 4.57 3.214 4.486 3.13C4.402 3.046 4.36 2.942 4.36 2.818C4.36 2.694 4.402 2.59 4.486 2.506C4.57 2.422 4.674 2.38 4.798 2.38C4.918 2.38 5.02 2.422 5.104 2.506C5.188 2.59 5.23 2.694 5.23 2.818C5.23 2.942 5.188 3.046 5.104 3.13C5.02 3.214 4.918 3.256 4.798 3.256ZM5.134 3.694V7H4.45V3.694H5.134Z" fill="white"/>
</svg>
