<svg width="19" height="17" viewBox="0 0 19 17" fill="none" xmlns="http://www.w3.org/2000/svg">
<path d="M8.62042 15.2162L8.61933 15.2153C6.15805 13.0388 4.17643 11.2824 2.80136 9.64179C1.4339 8.01031 0.75 6.5889 0.75 5.09537C0.75 2.66544 2.69444 0.75 5.225 0.75C6.65819 0.75 8.04102 1.40444 8.93699 2.42248L9.5 3.06218L10.063 2.42248C10.959 1.40444 12.3418 0.75 13.775 0.75C16.3056 0.75 18.25 2.66544 18.25 5.09537C18.25 6.5889 17.5661 8.01031 16.1986 9.64179C14.8236 11.2824 12.842 13.0388 10.3807 15.2153L10.3796 15.2162L9.5 15.9971L8.62042 15.2162Z" fill="#D83752" stroke="#D83752" stroke-width="1.5"/>
</svg>
