<svg width="19" height="24" viewBox="0 0 19 24" fill="none" xmlns="http://www.w3.org/2000/svg">
<path d="M19 20.6096L17.6316 5.18808C17.607 4.8829 17.351 4.65155 17.0409 4.65155H14.1565C14.1516 2.08705 12.0645 0 9.5 0C6.93549 0 4.84845 2.08705 4.84352 4.65155H1.95907C1.65389 4.65155 1.39793 4.8829 1.36839 5.18808L0 20.6096C0 20.6293 0 20.644 0 20.6637C0 22.3816 1.58005 23.7795 3.51943 23.7795H15.4806C17.4199 23.7795 19 22.3816 19 20.6637C19 20.644 19 20.6293 19 20.6096ZM9.5 1.18135C11.4148 1.18135 12.9702 2.73679 12.9751 4.65155H6.02487C6.02979 2.73679 7.58523 1.18135 9.5 1.18135ZM15.4806 22.5933H3.51943C2.23964 22.5933 1.19611 21.7417 1.18135 20.6834L2.50052 5.8329H4.84352V7.90518C4.84352 8.23005 5.10933 8.49586 5.4342 8.49586C5.75907 8.49586 6.02487 8.23005 6.02487 7.90518V5.8329H12.9751V7.90518C12.9751 8.23005 13.2409 8.49586 13.5658 8.49586C13.8907 8.49586 14.1565 8.23005 14.1565 7.90518V5.8329H16.4995L17.8187 20.6883C17.8039 21.7417 16.7604 22.5933 15.4806 22.5933Z" fill="black"/>
</svg>
