<svg width="18" height="18" viewBox="0 0 18 18" fill="none" xmlns="http://www.w3.org/2000/svg">
<path d="M8.99987 0.666504C11.264 0.666504 11.5465 0.674837 12.4349 0.716504C13.3224 0.758171 13.9265 0.897337 14.4582 1.104C15.0082 1.31567 15.4715 1.60234 15.9349 2.06484C16.3586 2.48142 16.6865 2.98533 16.8957 3.5415C17.1015 4.07234 17.2415 4.67734 17.2832 5.56484C17.3224 6.45317 17.3332 6.73567 17.3332 8.99984C17.3332 11.264 17.3249 11.5465 17.2832 12.4348C17.2415 13.3223 17.1015 13.9265 16.8957 14.4582C16.6871 15.0147 16.3591 15.5187 15.9349 15.9348C15.5182 16.3584 15.0143 16.6863 14.4582 16.8957C13.9274 17.1015 13.3224 17.2415 12.4349 17.2832C11.5465 17.3223 11.264 17.3332 8.99987 17.3332C6.7357 17.3332 6.4532 17.3248 5.56487 17.2832C4.67737 17.2415 4.0732 17.1015 3.54153 16.8957C2.98514 16.6869 2.48114 16.359 2.06487 15.9348C1.64104 15.5183 1.31314 15.0144 1.10403 14.4582C0.897368 13.9273 0.758201 13.3223 0.716534 12.4348C0.677368 11.5465 0.666534 11.264 0.666534 8.99984C0.666534 6.73567 0.674868 6.45317 0.716534 5.56484C0.758201 4.6765 0.897368 4.07317 1.10403 3.5415C1.31256 2.98499 1.64054 2.48094 2.06487 2.06484C2.48126 1.64086 2.98522 1.31295 3.54153 1.104C4.0732 0.897337 4.67653 0.758171 5.56487 0.716504C6.4532 0.677337 6.7357 0.666504 8.99987 0.666504ZM8.99987 4.83317C7.8948 4.83317 6.83499 5.27216 6.05359 6.05356C5.27219 6.83496 4.8332 7.89477 4.8332 8.99984C4.8332 10.1049 5.27219 11.1647 6.05359 11.9461C6.83499 12.7275 7.8948 13.1665 8.99987 13.1665C10.1049 13.1665 11.1647 12.7275 11.9461 11.9461C12.7275 11.1647 13.1665 10.1049 13.1665 8.99984C13.1665 7.89477 12.7275 6.83496 11.9461 6.05356C11.1647 5.27216 10.1049 4.83317 8.99987 4.83317ZM14.4165 4.62484C14.4165 4.34857 14.3068 4.08362 14.1114 3.88827C13.9161 3.69292 13.6511 3.58317 13.3749 3.58317C13.0986 3.58317 12.8336 3.69292 12.6383 3.88827C12.4429 4.08362 12.3332 4.34857 12.3332 4.62484C12.3332 4.9011 12.4429 5.16606 12.6383 5.36141C12.8336 5.55676 13.0986 5.6665 13.3749 5.6665C13.6511 5.6665 13.9161 5.55676 14.1114 5.36141C14.3068 5.16606 14.4165 4.9011 14.4165 4.62484ZM8.99987 6.49984C9.66291 6.49984 10.2988 6.76323 10.7676 7.23207C11.2365 7.70091 11.4999 8.3368 11.4999 8.99984C11.4999 9.66288 11.2365 10.2988 10.7676 10.7676C10.2988 11.2364 9.66291 11.4998 8.99987 11.4998C8.33683 11.4998 7.70094 11.2364 7.2321 10.7676C6.76326 10.2988 6.49987 9.66288 6.49987 8.99984C6.49987 8.3368 6.76326 7.70091 7.2321 7.23207C7.70094 6.76323 8.33683 6.49984 8.99987 6.49984Z" fill="#1E1E1E" fill-opacity="0.75"/>
</svg>
