<svg width="130" height="22" viewBox="0 0 130 22" fill="none" xmlns="http://www.w3.org/2000/svg">
<path d="M14.4 0.375999H19.632C18.624 0.639999 17.904 1.552 17.904 2.584V18.592C17.904 19.12 18.096 19.6 18.384 19.984C18.696 20.392 19.128 20.68 19.632 20.8H12.672C13.704 20.56 14.4 19.648 14.4 18.592V1.816L8.136 20.8L2.352 3.352V18.88C2.352 19.336 2.496 19.744 2.736 20.08C3 20.416 3.336 20.68 3.768 20.8H0.48C1.344 20.536 1.92 19.768 1.92 18.88V2.296C1.92 2.152 1.896 2.008 1.872 1.864L1.728 1.48C1.68 1.336 1.608 1.216 1.512 1.096C1.272 0.759999 0.912 0.495999 0.48 0.375999H5.064L9.84 14.512L14.4 0.375999ZM27.0566 20.8H20.1206C21.1286 20.536 21.8246 19.624 21.8246 18.568V11.176C21.8246 10.648 21.6566 10.168 21.3446 9.76C21.0566 9.376 20.6246 9.088 20.1206 8.944L25.3286 8.968V18.568C25.3286 19.624 26.0486 20.536 27.0566 20.8ZM23.5766 8.104C22.6166 8.104 21.8246 7.312 21.8246 6.352C21.8246 5.368 22.6166 4.6 23.5766 4.6C24.5606 4.6 25.3286 5.368 25.3286 6.352C25.3286 7.312 24.5606 8.104 23.5766 8.104ZM32.2069 12.112L36.6229 14.656C37.8949 15.352 38.5669 16.336 38.5669 17.416C38.5669 18.088 38.3269 18.808 37.7749 19.504C36.8149 20.776 34.8229 21.136 32.9029 21.136C31.6549 21.136 30.3589 21.112 29.1829 20.512C28.2709 20.056 27.6709 19.216 27.6709 18.304C27.6709 18.184 27.6709 18.088 27.6949 17.968C27.9349 16.384 29.9749 16.24 30.7429 16.24H31.0549C30.5989 16.864 30.3829 17.56 30.3829 18.208C30.3829 19.552 31.2949 20.728 32.9029 20.728C34.1509 20.728 34.8709 19.912 34.8709 19C34.8709 18.328 34.4629 17.584 33.5509 17.056L30.0709 15.04L29.2309 14.56C28.7269 14.272 27.6469 13.48 27.6469 11.968C27.6469 11.344 27.9589 10.48 28.6789 9.856C29.8309 8.992 31.2949 8.68 32.9029 8.68C35.2789 8.68 36.6469 9.28 37.3669 9.76C37.8229 10.072 38.1109 10.576 38.1109 11.08V11.2C37.9189 12.76 35.5669 12.832 35.0869 12.832H34.5589C34.9189 12.304 35.0629 11.8 35.0629 11.344C35.0629 10.024 33.8149 9.112 32.9029 9.112C32.6389 9.112 32.3989 9.184 32.1829 9.304C31.6309 9.616 31.3429 10.144 31.3429 10.672C31.3429 11.224 31.6549 11.776 32.2069 12.112ZM44.3475 12.112L48.7635 14.656C50.0355 15.352 50.7075 16.336 50.7075 17.416C50.7075 18.088 50.4675 18.808 49.9155 19.504C48.9555 20.776 46.9635 21.136 45.0435 21.136C43.7955 21.136 42.4995 21.112 41.3235 20.512C40.4115 20.056 39.8115 19.216 39.8115 18.304C39.8115 18.184 39.8115 18.088 39.8355 17.968C40.0755 16.384 42.1155 16.24 42.8835 16.24H43.1955C42.7395 16.864 42.5235 17.56 42.5235 18.208C42.5235 19.552 43.4355 20.728 45.0435 20.728C46.2915 20.728 47.0115 19.912 47.0115 19C47.0115 18.328 46.6035 17.584 45.6915 17.056L42.2115 15.04L41.3715 14.56C40.8675 14.272 39.7875 13.48 39.7875 11.968C39.7875 11.344 40.0995 10.48 40.8195 9.856C41.9715 8.992 43.4355 8.68 45.0435 8.68C47.4195 8.68 48.7875 9.28 49.5075 9.76C49.9635 10.072 50.2515 10.576 50.2515 11.08V11.2C50.0595 12.76 47.7075 12.832 47.2275 12.832H46.6995C47.0595 12.304 47.2035 11.8 47.2035 11.344C47.2035 10.024 45.9555 9.112 45.0435 9.112C44.7795 9.112 44.5395 9.184 44.3235 9.304C43.7715 9.616 43.4835 10.144 43.4835 10.672C43.4835 11.224 43.7955 11.776 44.3475 12.112ZM63.279 7.576L68.127 9.976C70.575 11.08 71.631 12.952 71.631 14.824C71.631 17.296 69.759 19.816 66.759 20.632C66.111 20.8 64.863 20.8 64.863 20.8H64.575C63.423 20.8 59.103 20.584 58.551 17.128C58.527 16.984 58.527 16.816 58.527 16.696C58.527 14.152 61.191 14.104 61.359 14.104C61.191 14.368 61.095 14.656 61.023 14.92C60.903 15.328 60.831 15.76 60.831 16.168C60.831 16.96 61.047 17.752 61.479 18.448C62.391 19.912 63.879 20.344 64.839 20.344C67.287 20.344 68.751 18.328 68.751 16.36C68.751 15.016 68.055 13.672 66.519 13.024L61.287 10.432C59.295 9.448 58.335 7.6 58.335 5.752C58.335 3.568 59.655 1.408 62.199 0.711999C62.991 0.495999 63.855 0.375999 64.767 0.375999H64.983C64.983 0.375999 69.495 0.375999 70.455 2.728C70.647 3.16 70.719 3.568 70.719 3.904C70.719 5.68 68.631 6.136 68.631 6.136C68.727 5.8 68.775 5.464 68.775 5.104C68.775 4.168 68.487 3.232 68.199 2.656C67.311 0.904 65.535 0.808 65.103 0.808H65.007C62.727 0.831999 61.335 2.704 61.335 4.528C61.335 5.728 61.935 6.928 63.279 7.576ZM85.929 14.8V18.52C85.929 19.6 86.673 20.536 87.729 20.8H85.017C83.601 20.8 82.425 19.648 82.425 18.232V14.8C82.425 11.728 82.161 9.424 80.481 9.232C80.409 9.232 80.313 9.208 80.241 9.208C78.393 9.208 77.337 11.632 77.337 14.8V18.592C77.337 19.624 78.033 20.536 79.041 20.8H72.105C73.113 20.536 73.833 19.624 73.833 18.592V4.768C73.833 4.288 73.641 3.856 73.329 3.544C72.993 3.232 72.585 3.04 72.105 3.04C75.081 2.2 77.337 0.352 77.337 0.352V11.56C77.793 10.096 78.633 9.04 80.001 8.776C80.337 8.704 80.649 8.68 80.961 8.68C84.009 8.68 85.929 11.8 85.929 14.8ZM99.999 13.528V18.616C99.999 19.648 100.719 20.536 101.703 20.8H92.607C90.183 20.8 88.215 18.88 88.215 16.528C88.215 14.152 90.183 12.232 92.607 12.232C94.311 12.232 95.775 13.168 96.495 14.512V11.704C96.495 10.984 96.231 10.312 95.751 9.808C95.319 9.376 94.743 9.112 94.119 9.112H93.951C92.607 9.16 92.247 9.784 92.175 10.336C92.151 10.432 92.151 10.528 92.151 10.624C92.151 11.224 92.487 11.632 92.487 11.632C92.487 11.632 91.887 11.848 91.287 11.848C90.783 11.848 90.255 11.68 90.111 11.056C90.087 10.936 90.063 10.816 90.063 10.696C90.063 8.728 93.831 8.68 94.263 8.68H94.311C97.335 8.68 99.999 10.408 99.999 13.528ZM96.495 20.368V16.528C96.495 14.704 95.103 13.048 93.807 13.048C93.591 13.048 93.375 13.072 93.183 13.168C92.319 13.528 91.719 14.464 91.719 16.552C91.719 17.824 92.055 18.616 92.319 19.072C92.751 19.744 93.423 20.272 94.575 20.344C94.647 20.344 94.719 20.368 94.815 20.368H96.495ZM116.023 18.304V18.52C116.023 19.6 116.767 20.536 117.823 20.8H115.087C113.887 20.8 112.855 19.936 112.591 18.808C112.543 18.616 112.519 18.424 112.519 18.232C112.519 15.184 112.231 12.904 110.551 12.736C110.455 12.736 110.383 12.712 110.287 12.712C109.975 12.712 109.663 12.808 109.375 12.952C109.135 13.096 108.943 13.264 108.751 13.456C107.887 14.416 107.407 16.192 107.407 18.304V18.592C107.407 19.624 108.127 20.536 109.135 20.8H102.199C103.207 20.536 103.903 19.624 103.903 18.592V4.768C103.903 4.288 103.711 3.856 103.399 3.544C103.087 3.232 102.655 3.04 102.175 3.04C105.175 2.2 107.407 0.352 107.407 0.352V15.04C107.479 14.8 107.575 14.536 107.695 14.32C107.959 13.744 108.319 13.24 108.775 12.88L111.991 10.264C112.183 10.072 112.255 9.904 112.255 9.736C112.255 9.28 111.751 8.944 111.751 8.944H115.399C115.399 8.944 113.815 9.4 112.639 10.288L110.263 12.232C110.527 12.184 110.791 12.16 111.031 12.16C113.551 12.16 115.279 14.248 115.831 16.648C115.951 17.2 116.023 17.752 116.023 18.304ZM125.668 20.608C127.252 20.608 128.62 19.792 129.412 18.256C129.412 18.256 129.1 21.136 124.732 21.136C121.18 21.136 118.3 18.352 118.3 14.92C118.3 11.464 121.18 8.68 124.732 8.68C126.436 8.68 128.572 9.232 129.268 10.576C129.412 10.888 129.484 11.152 129.484 11.416C129.484 12.088 128.98 12.592 128.308 12.904H128.332C125.62 13.96 124.06 15.208 123.172 16.096C122.812 16.48 122.596 16.984 122.596 17.488C122.596 17.8 122.692 18.112 122.836 18.4C123.532 19.744 124.612 20.608 125.668 20.608ZM121.852 14.752C121.852 15.328 122.02 16.192 122.188 16.6C123.388 14.824 125.62 13.624 125.62 13.624C126.46 13.024 126.796 12.28 126.796 11.56C126.796 10.288 125.764 9.112 124.732 9.112C123.244 9.112 121.852 11.536 121.852 14.752Z" fill="#D86F92"/>
</svg>
